<svg xmlns="http://www.w3.org/2000/svg" viewBox="0 0 379.03 357.02"><defs><style>.cls-1,.cls-2,.cls-3{fill:none;stroke:#000;stroke-width:9px;}.cls-1,.cls-2{stroke-miterlimit:10;}.cls-2,.cls-3{stroke-linecap:round;}.cls-3{stroke-linejoin:round;}</style></defs><g id="Слой_2" data-name="Слой 2"><g id="Слой_1-2" data-name="Слой 1"><rect class="cls-1" x="127.63" y="145.62" width="141.81" height="141.74" rx="14.18" transform="matrix(0.89, -0.46, 0.46, 0.89, -77.43, 115.86)"/><circle class="cls-1" cx="168.5" cy="198.5" r="12"/><circle class="cls-1" cx="233.5" cy="234.5" r="12"/><line class="cls-2" x1="192.5" y1="256.5" x2="211.5" y2="173.5"/><path class="cls-3" d="M328.71,243.49l-47-90.58-44.92-44c-7.06-6.9-2.62-18.5,7-18.39l5.55.07L235.48,64a25.69,25.69,0,0,0-34.63-11L184.5,59.5q-1-3-2-6c-.72-2.13-1.44-4.23-2.17-6.32L174,35a14.62,14.62,0,0,0-19.71-6.24l-18.45,9.58c-10.61,5.77-19.37,10.19-25.36,13.13-4.83,2.37-14.6,7.1-26,13-17.71,9.16-19.69,11-21,14-4.13,9.57,1.55,24.16,10,27,2.56.86,4.78.44,7,0,17.59-3.52,26.38-5.28,30-7C126.74,90.79,135.85,78,139.61,72c1.74.88,7.91,4.19,10.09,11.21a18,18,0,0,1-33.77,12.38c-11.7,6.23-26.42,10-42.43,10-.55,0-1.1,0-1.65,0a70.09,70.09,0,0,1,3.65,6c.74,1.37,1.4,2.71,2,4l-14.34,9a25.67,25.67,0,0,0-10.95,34.62l93.23,179.54a25.69,25.69,0,0,0,34.63,10.95l137.69-71.5A25.68,25.68,0,0,0,328.71,243.49Z"/><path class="cls-3" d="M115.93,95.55A18,18,0,1,0,139.61,72C135.47,81.42,127.07,89.62,115.93,95.55Z"/><path class="cls-1" d="M64.54,91.88a14.63,14.63,0,0,1,6.24-19.72l65.08-33.79C124.79,22.49,101,11.5,73.5,11.5c-38.11,0-69,21-69,47,0,25.58,30,46.37,67.35,47-.33-.49-.66-1-1-1.43Z"/><path class="cls-3" d="M114.5,88.5a18,18,0,0,0,1.43,7c11.14-5.93,19.54-14.13,23.68-23.59A18,18,0,0,0,114.5,88.5Z"/><path class="cls-1" d="M371.59,110.58l-57.75,59a10.85,10.85,0,0,1-15.32-.19l-16.85-16.49-44.92-44c-7.06-6.9-2.62-18.5,7-18.39l5.55.07,13.17.16V22.43A17.93,17.93,0,0,1,280.43,4.5h46.14A17.93,17.93,0,0,1,344.5,22.43V91.78l18.81.23C373,92.12,378.18,103.84,371.59,110.58Z"/></g></g></svg>