<svg xmlns="http://www.w3.org/2000/svg" viewBox="0 0 373.19 371.1"><defs><style>.cls-1{fill:none;stroke:#000;stroke-miterlimit:10;stroke-width:10px;}</style></defs><g id="Слой_2" data-name="Слой 2"><g id="Слой_1-2" data-name="Слой 1"><path class="cls-1" d="M282,5V150.6C252.5,195.7,195.85,186,195.85,186c-6.37,108.1,17,139,42.49,154.05H5V5Z"/><rect class="cls-1" x="40.5" y="28.5" width="206" height="24"/><line class="cls-1" x1="37.5" y1="89.5" x2="224.6" y2="89.5"/><line class="cls-1" x1="37.5" y1="112.58" x2="224.6" y2="112.58"/><line class="cls-1" x1="37.5" y1="137.77" x2="224.6" y2="137.77"/><line class="cls-1" x1="37.5" y1="161.53" x2="147.61" y2="161.53"/><line class="cls-1" x1="37.5" y1="185.95" x2="147.61" y2="185.95"/><path class="cls-1" d="M282,364.46c-10.95-11.9-27.73-15.08-43.66-24.46-25.53-15-48.86-45.95-42.49-154,0,0,56.65,9.75,86.15-35.35,0,0,32.52,43.8,83.51,35.35C381.5,348.5,322.5,335.5,282,364.46Z"/><path class="cls-1" d="M341.5,239.5s11,66-22,78"/><polyline class="cls-1" points="228.5 270.5 250.5 293.5 334.5 209.5"/><path d="M39.4,253.46h4v21.3h-4Zm1.74,8.79h7.55v3.87H41.14Zm4.18,3.13L49,263.85l7.34,10.91h-5Zm0-2.31,5.45-9.61h4.63L48.3,265.69Z"/><path d="M64.74,253.46h2.55l8.14,21.3H71.11L66,260.21l-5.09,14.55H56.6Zm-4.23,14h11.2v3.87H60.51Z"/><path d="M78.77,268a5.58,5.58,0,0,1-2.16-2.56,10.07,10.07,0,0,1-.74-4.05v-7.88h4v8a3.79,3.79,0,0,0,.75,2.52,2.61,2.61,0,0,0,2.12.9,3.85,3.85,0,0,0,2.79-1,3.65,3.65,0,0,0,1-2.74v-1.68h.93V263a7.33,7.33,0,0,1-.62,3.18,4.43,4.43,0,0,1-1.81,2,5.65,5.65,0,0,1-2.87.69A6.35,6.35,0,0,1,78.77,268Zm7.77-14.49h4v21.3h-4Z"/><path d="M95.24,253.46h4v21.3h-4Zm1.45,0h12.82v3.87H96.69Zm0,8.79h11.2v3.87H96.69Zm0,8.64h12.82v3.87H96.69Z"/><path d="M116.27,274.05a6.15,6.15,0,0,1-2.63-2.71,9.32,9.32,0,0,1-.91-4.3v-5.85a9.28,9.28,0,0,1,.91-4.29,6.18,6.18,0,0,1,2.63-2.72,8.58,8.58,0,0,1,4.16-.94,7.41,7.41,0,0,1,3.59.86,7.09,7.09,0,0,1,2.62,2.52,10.91,10.91,0,0,1,1.43,4h-4.16a5.44,5.44,0,0,0-.73-1.8,3.4,3.4,0,0,0-1.19-1.14,3.12,3.12,0,0,0-1.56-.4,3.74,3.74,0,0,0-1.92.47,2.91,2.91,0,0,0-1.2,1.34,4.93,4.93,0,0,0-.42,2.13V267a4.86,4.86,0,0,0,.42,2.12,2.91,2.91,0,0,0,1.2,1.34,3.74,3.74,0,0,0,1.92.47,3.23,3.23,0,0,0,1.59-.39,3.37,3.37,0,0,0,1.18-1.14,5.39,5.39,0,0,0,.71-1.81h4.16a11.11,11.11,0,0,1-1.45,4,7.09,7.09,0,0,1-2.6,2.51,7.31,7.31,0,0,1-3.59.87A8.69,8.69,0,0,1,116.27,274.05Z"/><path d="M128.8,253.46h15.61v3.87H128.8Zm5.8,1.74h4v19.56h-4Z"/><path d="M146.76,253.46h4v21.3h-4Zm1.75,17.43h6.8a3.12,3.12,0,0,0,2.13-.66,2.36,2.36,0,0,0,.76-1.87v-.05a2.7,2.7,0,0,0-.34-1.37,2.12,2.12,0,0,0-1-.87,3.68,3.68,0,0,0-1.56-.3h-6.8V261.9h6.8a2.75,2.75,0,0,0,1.93-.63,2.31,2.31,0,0,0,.68-1.77,2,2,0,0,0-.68-1.6,2.94,2.94,0,0,0-1.93-.57h-6.8v-3.87h6.93a8.36,8.36,0,0,1,3.53.68,4.91,4.91,0,0,1,2.23,2,6,6,0,0,1,.76,3.11,4.76,4.76,0,0,1-.49,2.21A4.06,4.06,0,0,1,160,263a5.8,5.8,0,0,1-2.25.84,5.67,5.67,0,0,1,2.41.85,4.4,4.4,0,0,1,1.52,1.74,5.54,5.54,0,0,1,.52,2.47v0a6.08,6.08,0,0,1-.77,3.13,5,5,0,0,1-2.24,2,8.44,8.44,0,0,1-3.54.68h-7.18Z"/><path d="M168.94,274a6.7,6.7,0,0,1-2.73-2.75,8.56,8.56,0,0,1-1-4.12v-6a8.56,8.56,0,0,1,1-4.12,6.78,6.78,0,0,1,2.73-2.76,9.07,9.07,0,0,1,8.16,0,6.72,6.72,0,0,1,2.73,2.76,8.45,8.45,0,0,1,1,4.12v6a8.45,8.45,0,0,1-1,4.12A6.64,6.64,0,0,1,177.1,274a9,9,0,0,1-8.16,0Zm6-3.5a3.07,3.07,0,0,0,1.26-1.31,4.11,4.11,0,0,0,.45-2V261a4.11,4.11,0,0,0-.45-2,3.07,3.07,0,0,0-1.26-1.31,3.83,3.83,0,0,0-1.91-.47,3.77,3.77,0,0,0-1.9.47,3.09,3.09,0,0,0-1.27,1.31,4.11,4.11,0,0,0-.45,2v6.24a4.11,4.11,0,0,0,.45,2,3.09,3.09,0,0,0,1.27,1.31,3.77,3.77,0,0,0,1.9.47A3.83,3.83,0,0,0,174.93,270.5Z"/></g></g></svg>