<svg xmlns="http://www.w3.org/2000/svg" viewBox="0 0 557.41 463.74"><defs><style>.cls-1,.cls-2,.cls-3,.cls-4,.cls-5,.cls-6,.cls-7{fill:none;stroke:#000;}.cls-1,.cls-2,.cls-3,.cls-4,.cls-7{stroke-miterlimit:10;}.cls-1{stroke-width:15px;}.cls-2,.cls-5{stroke-width:14px;}.cls-3,.cls-5,.cls-6{stroke-linecap:round;}.cls-3,.cls-4{stroke-width:13px;}.cls-5,.cls-6{stroke-linejoin:round;}.cls-6{stroke-width:16px;}.cls-7{stroke-width:8px;}</style></defs><g id="Слой_2" data-name="Слой 2"><g id="Слой_1-2" data-name="Слой 1"><circle class="cls-1" cx="361.41" cy="267.74" r="188.5"/><circle class="cls-2" cx="361.7" cy="268.02" r="152.28"/><rect class="cls-3" x="411.05" y="61" width="43" height="29.5" transform="translate(48.64 -137.44) rotate(19.11)"/><rect class="cls-4" x="395.23" y="18.13" width="100" height="42" rx="13.16" transform="translate(37.35 -143.61) rotate(19.11)"/><line class="cls-5" x1="358.41" y1="146.38" x2="358.41" y2="175.37"/><line class="cls-5" x1="426.41" y1="203.74" x2="445.41" y2="183.74"/><line class="cls-5" x1="453.41" y1="270.74" x2="483.66" y2="270.74"/><line class="cls-5" x1="426.41" y1="337.9" x2="445.41" y2="358.34"/><line class="cls-5" x1="358.41" y1="364.99" x2="358.41" y2="393.98"/><line class="cls-5" x1="293.09" y1="337.9" x2="272.18" y2="358.34"/><line class="cls-5" x1="266" y1="270.74" x2="235.58" y2="270.74"/><line class="cls-5" x1="293.41" y1="205.74" x2="272.18" y2="183.74"/><circle class="cls-6" cx="358.41" cy="270.74" r="20"/><line class="cls-6" x1="378.41" y1="270.74" x2="426.41" y2="270.74"/><line class="cls-6" x1="49.41" y1="213.74" x2="147.78" y2="213.74"/><line class="cls-6" x1="8" y1="270.74" x2="147.78" y2="270.74"/><line class="cls-6" x1="49.41" y1="327.45" x2="147.78" y2="327.45"/><line class="cls-7" x1="472.42" y1="26.33" x2="457.69" y2="68.85"/><line class="cls-7" x1="431.79" y1="12.25" x2="417.06" y2="54.77"/><line class="cls-7" x1="438.36" y1="58.97" x2="452.11" y2="19.29"/><rect class="cls-4" x="244.9" y="64.7" width="54.18" height="31.68" rx="9.18" transform="translate(-7.92 126.51) rotate(-25.82)"/></g></g></svg>