<svg xmlns="http://www.w3.org/2000/svg" viewBox="0 0 410.31 410.42"><defs><style>.cls-1{fill:none;stroke:#000;stroke-linecap:round;stroke-linejoin:round;stroke-width:20px;}</style></defs><g id="Слой_2" data-name="Слой 2"><g id="Слой_1-2" data-name="Слой 1"><path class="cls-1" d="M215,158.26l-56.12,47.67L102.43,134l-54-19.5L14.43,47l34-35,71,36,16,48Z"/><path class="cls-1" d="M296.43,381l-95.58-121.7,58-66.78L378.43,286C436.43,357,365.43,430,296.43,381Z"/><path class="cls-1" d="M400.31,90.51c.13,20-12.88,34.28-26.38,49a152.45,152.45,0,0,1-40,31l-62,7-13.05,15-58,66.78L92.93,383.51c-19.57,22.43-54,21.95-71.74,2.08-17.35-19.42-14.6-52.72,8.74-70.08l129-109.58L215,158.26l20.89-17.75v-52a116.38,116.38,0,0,1,28-49c10.52-10.83,32.2-33.15,59-29,13.44,2.08,23,10,28,15-3.6,3.23-37.07,33.72-38,53-.14,2.84-.44,9.14,3.64,13.24,3.65,3.66,9,3.73,11.36,3.76,18.27.23,57.31-32.84,61-36C393.6,65.74,400.21,76.66,400.31,90.51Z"/><line class="cls-1" x1="229.78" y1="296.15" x2="294.87" y2="220.67"/><circle cx="57.93" cy="351.51" r="11"/></g></g></svg>