<svg id="Слой_1" data-name="Слой 1" xmlns="http://www.w3.org/2000/svg" viewBox="0 0 432 430.82"><defs><style>.cls-1{fill:#7da5bc;}</style></defs><path class="cls-1" d="M387.82,178.53H252a10.83,10.83,0,0,0-10.83,10.83v219.8A10.84,10.84,0,0,1,230.34,420H202.4a10.83,10.83,0,0,1-10.83-10.84V189.36a10.84,10.84,0,0,0-10.84-10.83H44.18a10.84,10.84,0,0,1-6.89-19.21L209.11,17.85a10.85,10.85,0,0,1,13.78,0L394.71,159.32A10.84,10.84,0,0,1,387.82,178.53Z" transform="translate(0 -0.68)"/><path class="cls-1" d="M241.18,431.5H191.57c-7.72,0-14-5.15-14-11.5V200.86A10.83,10.83,0,0,0,166.76,190H14c-5.65,0-10.74-2.81-12.91-7.1s-1-9.25,3-12.54l202-166.34a16.18,16.18,0,0,1,19.76,0l202,166.34c4,3.29,5.19,8.24,3,12.54S423.68,190,418,190H266a10.84,10.84,0,0,0-10.84,10.83V420C255.14,426.35,248.89,431.5,241.18,431.5Zm-24.81-23h0a10.84,10.84,0,0,0,10.84-10.84V178.53c0-6.36,6.25-11.5,14-11.5H354.1A10.84,10.84,0,0,0,361,147.82L222.89,34.12a10.83,10.83,0,0,0-13.78,0L71,147.82A10.84,10.84,0,0,0,77.9,167H191.57c7.71,0,14,5.14,14,11.5V397.66A10.84,10.84,0,0,0,216.37,408.5Z" transform="translate(0 -0.68)"/></svg>